<?xml version="1.0" standalone="no"?>
<!DOCTYPE svg PUBLIC "-//W3C//DTD SVG 20010904//EN"
 "http://www.w3.org/TR/2001/REC-SVG-20010904/DTD/svg10.dtd">
<svg version="1.0" xmlns="http://www.w3.org/2000/svg"
 width="512.000000pt" height="512.000000pt" viewBox="0 0 512.000000 512.000000"
 preserveAspectRatio="xMidYMid meet">
<metadata>
Created by potrace 1.11, written by Peter Selinger 2001-2013
</metadata>
<g transform="translate(0.000000,512.000000) scale(0.100000,-0.100000)"
fill="#000000" stroke="none">
<path d="M540 4944 c-93 -25 -162 -64 -231 -133 -38 -38 -77 -89 -92 -121 -61
-126 -57 8 -57 -2130 0 -2138 -4 -2004 57 -2130 34 -71 142 -179 213 -213 126
-61 -9 -57 2135 -57 2139 0 2010 -3 2128 56 67 34 177 144 211 211 59 118 56
-11 56 2128 0 2144 4 2009 -57 2135 -34 71 -142 179 -213 213 -126 61 9 57
-2135 56 -1685 0 -1968 -2 -2015 -15z m2515 -1209 c288 -47 469 -190 552 -440
26 -75 27 -91 28 -265 0 -167 -2 -192 -23 -260 -59 -188 -175 -330 -332 -408
-166 -82 -298 -102 -662 -102 l-258 0 0 -445 0 -445 -370 0 -370 0 0 1190 0
1190 673 0 c542 0 689 -3 762 -15z"/>
<path d="M2360 3005 l0 -268 163 6 c224 7 296 32 361 125 26 37 31 54 34 118
5 92 -13 146 -66 201 -59 60 -116 75 -319 81 l-173 5 0 -268z"/>
</g>
</svg>
