<svg width="113" height="43" viewBox="0 0 113 43" fill="none" xmlns="http://www.w3.org/2000/svg">
<g id="Layer_1" clip-path="url(#clip0_237_247)">
<g id="K0S-logo-mark-full-color-inverted">
<g id="K0S-logo-mark-full-color-inverted-2">
<path id="Path_90730" d="M26.3482 12.5977V23.0909L15.6016 31.1587V20.6706L26.3482 12.5977Z" fill="white"/>
<path id="Path_90731" d="M41.8734 11.429V42.857H0.0761719V42.8208L11.2004 34.4686H33.4746V17.7384L41.8734 11.4341V11.429Z" fill="url(#paint0_linear_237_247)"/>
<path id="Path_90732" d="M0.0761719 0.971924V32.3276L8.46974 26.0233V9.36549H30.6612L41.832 0.971924H0.0761719Z" fill="white"/>
</g>
</g>
<path id="Vector" d="M70.5137 17.0245H65.8696L61.4116 21.5911V10.3997L57.4863 12.2356V33.0618H61.4116V26.0025L62.9993 24.4303L67.5038 33.0618H71.7704L65.8696 21.6376L70.5137 17.0245Z" fill="white"/>
<path id="Vector_2" d="M90.7241 14.3614C89.9742 13.2598 88.9916 12.3755 87.7711 11.7083C86.5506 11.0412 85.0611 10.7102 83.308 10.7102C81.5548 10.7102 80.0602 11.0412 78.8345 11.7083C77.6088 12.3755 76.6262 13.2547 75.8763 14.3614C75.1264 15.4681 74.5834 16.6886 74.2369 18.0281C73.8904 19.3675 73.7197 20.7173 73.7197 22.0775C73.7197 23.4376 73.8904 24.7874 74.2369 26.1269C74.5834 27.4663 75.1264 28.6868 75.8763 29.7936C76.6262 30.9003 77.6088 31.7795 78.8345 32.4466C80.0602 33.1086 81.5496 33.4447 83.308 33.4447C85.0663 33.4447 86.5557 33.1137 87.7711 32.4466C88.9916 31.7846 89.9742 30.9003 90.7241 29.7936C91.474 28.692 92.017 27.4663 92.3583 26.1269C92.6997 24.7874 92.8703 23.4376 92.8703 22.0775C92.8703 20.7173 92.6997 19.3675 92.3583 18.0281C92.017 16.6886 91.474 15.4681 90.7241 14.3614ZM78.2139 19.5279C78.3949 18.6538 78.6949 17.8419 79.1086 17.0972C79.5223 16.3473 80.0705 15.7422 80.7583 15.2819C81.4462 14.8217 82.2943 14.5889 83.308 14.5889C84.3216 14.5889 85.1594 14.8113 85.8421 15.2561C86.0489 15.3905 86.2351 15.5405 86.4161 15.6957L78.5707 25.9355C78.4208 25.5425 78.3018 25.1287 78.2139 24.6943C78.0329 23.8151 77.9398 22.9411 77.9398 22.0723C77.9398 21.2035 78.0329 20.3967 78.2139 19.5227V19.5279ZM88.3762 24.6116C88.19 25.4856 87.8849 26.2924 87.4659 27.0371C87.047 27.7818 86.4937 28.3817 85.811 28.842C85.1232 29.3022 84.2906 29.5298 83.308 29.5298C82.3253 29.5298 81.472 29.3126 80.7894 28.873C80.536 28.7075 80.3032 28.5213 80.086 28.3145L87.9676 18.0281C88.1434 18.4728 88.2831 18.9383 88.3865 19.4348C88.5675 20.3191 88.6606 21.1983 88.6606 22.0775C88.6606 22.8946 88.5675 23.7376 88.3762 24.6116Z" fill="white"/>
<path id="Vector_3" d="M111.602 23.9341C111.173 23.1428 110.604 22.4809 109.901 21.9482C109.192 21.4155 108.411 20.9604 107.548 20.5932C106.684 20.2208 105.82 19.8899 104.952 19.5951C104.176 19.321 103.483 19.0572 102.873 18.7935C102.262 18.5297 101.776 18.2349 101.414 17.9091C101.052 17.5781 100.871 17.1799 100.871 16.7093C100.871 16.0163 101.14 15.4836 101.673 15.1061C102.205 14.7286 102.955 14.5424 103.917 14.5424C104.941 14.5424 105.758 14.7648 106.358 15.2095C106.958 15.6543 107.408 16.2077 107.698 16.8645L111.339 15.6543C111.085 14.7131 110.635 13.8701 109.989 13.1254C109.342 12.3806 108.52 11.7962 107.532 11.3618C106.544 10.9274 105.412 10.7102 104.134 10.7102C102.573 10.7102 101.249 10.9791 100.157 11.517C99.0663 12.0548 98.2285 12.7737 97.6544 13.6736C97.0804 14.5734 96.7908 15.5612 96.7908 16.6421C96.7908 17.7229 96.9976 18.628 97.4114 19.3727C97.8251 20.1174 98.3733 20.7277 99.0508 21.219C99.7334 21.7051 100.478 22.1137 101.295 22.4498C102.112 22.786 102.924 23.0859 103.726 23.36C104.564 23.6445 105.314 23.9341 105.976 24.2289C106.638 24.5288 107.17 24.8805 107.563 25.2942C107.956 25.708 108.153 26.2251 108.153 26.8405C108.153 27.7404 107.822 28.4282 107.155 28.8989C106.488 29.3695 105.598 29.6074 104.481 29.6074C103.426 29.6074 102.474 29.2867 101.631 28.6403C100.788 27.999 100.132 27.1715 99.661 26.1682L95.9736 27.5335C96.3718 28.7385 96.9718 29.778 97.7682 30.6624C98.5698 31.5467 99.5266 32.2294 100.649 32.7104C101.766 33.1913 103.012 33.4344 104.383 33.4344C105.867 33.4344 107.201 33.1758 108.386 32.6586C109.57 32.1415 110.506 31.3916 111.204 30.409C111.897 29.4264 112.249 28.2317 112.249 26.8302C112.249 25.6924 112.037 24.7254 111.608 23.9341H111.602Z" fill="white"/>
</g>
<defs>
<linearGradient id="paint0_linear_237_247" x1="20.9748" y1="7.46231" x2="20.9748" y2="57.1669" gradientUnits="userSpaceOnUse">
<stop stop-color="#1DA7FD"/>
<stop offset="1" stop-color="#08F5DA"/>
</linearGradient>
<clipPath id="clip0_237_247">
<rect width="112.173" height="41.8851" fill="white" transform="translate(0.0761719 0.971924)"/>
</clipPath>
</defs>
</svg>
