<svg width="196" height="22" viewBox="0 0 196 22" fill="none" xmlns="http://www.w3.org/2000/svg">
<path d="M78.2961 0.415405L71.3131 9.55933L64.3779 0.415405H61.1699V21.5854H64.1306V4.89368L71.3131 14.3781L78.5424 4.89368V21.5854H81.5031V0.415405H78.2961Z" fill="black"/>
<rect x="85.9404" y="0.416138" width="2.95968" height="21.17" fill="black"/>
<path d="M96.2975 10.7676H101.025C102.864 10.7676 104.123 10.4107 104.799 9.69473C105.476 8.979 105.814 8.04985 105.814 6.90891C105.814 4.31539 104.176 3.01905 100.901 3.01905H96.2975V10.7676ZM93.3379 21.5853V0.415283H101.149C103.515 0.415283 105.377 0.968636 106.736 2.07677C108.094 3.18573 108.774 4.76439 108.774 6.81583C108.774 8.54866 108.321 9.92538 107.417 10.9466C106.513 11.9686 105.385 12.67 104.032 13.0507L109.657 21.5853H106.17L101.056 13.5266H96.2975V21.5853H93.3379Z" fill="black"/>
<path d="M121.02 4.10332L124.384 12.8905H117.656L121.02 4.10332ZM119.594 0.415405L111.147 21.5854H114.324L116.602 15.6495H125.437L127.715 21.5854H130.892L122.477 0.415405H119.594Z" fill="black"/>
<path d="M148.318 0.415405V17.2622L136.478 0.415405H133.114V21.5854H136.075V4.63002L148.008 21.5854H151.278V0.415405H148.318Z" fill="black"/>
<path d="M154.679 0.415405V3.17335H161.776V21.5854H164.737V3.17335H171.88V0.415405H154.679Z" fill="black"/>
<rect x="175.283" y="0.416138" width="2.95989" height="21.17" fill="black"/>
<path d="M181.772 6.13367C181.772 4.47752 182.375 3.06841 183.58 1.90779C184.785 0.747162 186.649 0.166748 189.172 0.166748C191.074 0.166748 192.892 0.597088 194.628 1.45572V4.33359C193.079 3.39542 191.379 2.92571 189.528 2.92571C186.332 2.92571 184.733 3.99531 184.733 6.13367C184.733 6.70671 185.014 7.20757 185.576 7.63586C186.138 8.06312 186.831 8.40551 187.657 8.66096C188.481 8.91662 189.385 9.24753 190.368 9.65511C191.351 10.0617 192.256 10.4943 193.083 10.9535C193.91 11.4117 194.604 12.0852 195.162 12.9717C195.721 13.8582 196 14.8907 196 16.07C196 17.8785 195.323 19.2905 193.967 20.3074C192.613 21.3243 190.74 21.8333 188.353 21.8333C186.232 21.8333 184.132 21.3286 182.053 20.3178V17.2753C184.018 18.4753 186.031 19.0744 188.089 19.0744C191.38 19.0744 193.03 18.0728 193.039 16.07C193.039 15.2145 192.761 14.4842 192.205 13.8792C191.647 13.275 190.957 12.8362 190.131 12.5654L187.409 11.6416C186.419 11.2979 185.512 10.9451 184.688 10.5851C183.864 10.2253 183.172 9.66454 182.613 8.90309C182.053 8.14165 181.772 7.21885 181.772 6.13367Z" fill="black"/>
<path d="M14.2793 8.35506C17.5453 9.28093 19.847 11.2766 22.2324 13.2751C24.346 12.0936 26.4366 10.8678 28.5264 9.7123C29.2433 9.31599 29.9582 8.94367 30.6719 8.59206C29.9541 7.95998 29.2331 7.32996 28.4788 6.74749C25.6122 4.53573 22.3989 3.26542 18.8063 2.99746C12.055 2.49475 4.90041 5.2246 0 9.96058C4.28801 7.33713 9.5267 7.00828 14.2793 8.35506Z" fill="black"/>
<path d="M36.1944 12.5527C34.9737 12.0168 33.8916 11.2791 32.8642 10.4619C30.5862 11.7261 28.3363 13.0513 26.0883 14.2935C25.5679 14.5814 25.0476 14.8553 24.5293 15.1202C25.1366 15.5733 25.7676 16.0079 26.437 16.4083C34.9095 21.4844 46.586 18.6955 53.4551 12.0363C48.2391 15.2444 41.6555 14.9517 36.1944 12.5527Z" fill="black"/>
<path d="M50.3708 3.78943C42.252 3.38492 35.2071 5.08557 27.9315 9.10684C20.0257 13.4754 12.0943 18.8734 3.05469 19.0038C11.1725 19.4083 18.2184 17.7077 25.4942 13.6864C33.3998 9.31781 41.3314 3.91982 50.3708 3.78943Z" fill="black"/>
</svg>
